<?xml version="1.0" standalone="no"?>
<!DOCTYPE svg PUBLIC "-//W3C//DTD SVG 20010904//EN"
 "http://www.w3.org/TR/2001/REC-SVG-20010904/DTD/svg10.dtd">
<svg version="1.0" xmlns="http://www.w3.org/2000/svg"
 width="350.000000pt" height="106.000000pt" viewBox="0 0 350.000000 106.000000"
 preserveAspectRatio="xMidYMid meet">

<g transform="translate(0.000000,106.000000) scale(0.100000,-0.100000)"
fill="#000000" stroke="none">
<path fill="#0570b8" d="M250 850 c0 -37 2 -40 28 -40 38 0 52 -17 52 -61 0 -35 -4 -39 -45
-60 -73 -36 -74 -45 -11 -65 31 -10 56 -21 56 -26 0 -15 -36 -8 -84 16 l-47
24 -30 -41 c-50 -68 -51 -118 -4 -189 29 -44 40 -46 97 -18 44 21 68 25 68 12
0 -4 -22 -15 -50 -25 -27 -10 -50 -22 -50 -27 0 -5 29 -22 65 -39 36 -17 65
-36 65 -42 0 -26 57 -81 113 -109 75 -37 132 -39 202 -6 51 23 108 78 120 115
3 12 11 21 16 21 18 0 119 51 119 60 0 10 -88 44 -137 53 -29 6 -33 4 -43 -27
-6 -18 -28 -52 -49 -75 l-38 -41 31 0 30 0 -22 -23 c-32 -32 -122 -32 -154 0
l-22 23 22 0 c21 0 22 4 22 80 l0 80 -35 0 c-19 0 -35 5 -35 10 0 6 16 10 35
10 l35 0 0 55 c0 54 0 55 -29 55 -17 0 -33 5 -36 10 -4 6 8 10 29 10 l36 0 0
86 0 86 -35 -6 c-33 -7 -35 -6 -35 22 0 36 16 52 52 52 26 0 28 3 28 40 l0 40
-165 0 -165 0 0 -40z m310 0 c0 -15 -7 -20 -29 -20 -23 0 -30 -6 -36 -27 -12
-44 -7 -504 6 -535 22 -55 97 -82 179 -65 30 6 32 6 13 -5 -13 -6 -23 -15 -23
-20 0 -4 -7 -8 -16 -8 -9 0 -12 -5 -8 -11 5 -8 -15 -10 -69 -7 -65 3 -82 8
-119 33 -55 39 -98 101 -109 156 -4 24 -8 134 -9 244 0 110 -3 210 -6 223 -5
16 -14 22 -34 22 -26 0 -46 21 -33 34 4 3 71 6 150 6 136 0 143 -1 143 -20z"/>
<path fill="#0570b8" d="M670 850 c0 -37 2 -40 29 -40 16 0 34 -7 41 -14 13 -17 10 -62 -5
-60 -6 1 -25 4 -43 8 l-34 6 41 -46 c22 -25 45 -61 51 -80 9 -25 17 -33 28
-30 181 48 184 52 87 100 -47 23 -55 31 -55 54 0 38 19 60 55 64 27 3 30 7 33
41 l3 37 -115 0 -116 0 0 -40z m210 0 c0 -16 -7 -20 -34 -20 -18 0 -39 -7 -46
-15 -7 -8 -16 -12 -21 -9 -5 3 -9 1 -9 -5 0 -5 5 -13 10 -16 6 -3 10 -17 10
-31 0 -13 -4 -24 -10 -24 -5 0 -10 11 -10 24 0 49 -17 76 -49 76 -31 0 -47 13
-36 30 3 6 48 10 101 10 87 0 94 -1 94 -20z"/>
<path fill="#0570b8" d="M1390 676 l0 -216 60 0 60 0 0 90 c0 83 1 90 20 90 28 0 51 -26 96
-108 l38 -72 68 0 c37 0 68 3 68 8 0 21 -88 158 -107 167 -31 13 -29 19 12 34
82 29 87 162 8 201 -18 9 -79 15 -175 18 l-148 4 0 -216z m247 108 c16 -22 16
-26 -1 -49 -9 -13 -30 -20 -70 -23 l-56 -4 0 44 c0 25 3 48 8 52 14 15 105 0
119 -20z"/>
<path fill="#0570b8" d="M1882 726 c3 -148 5 -167 24 -192 44 -60 67 -69 174 -69 107 0 130 9
174 69 19 25 21 44 24 192 l3 164 -60 0 -60 0 -3 -149 c-3 -130 -5 -152 -22
-170 -24 -27 -76 -28 -107 -2 -23 18 -24 25 -27 170 l-3 151 -60 0 -60 0 3
-164z"/>
<path fill="#0570b8" d="M2410 676 l0 -216 100 0 c135 0 193 14 234 55 62 61 73 199 24 287
-37 66 -78 82 -230 86 l-128 4 0 -216z m235 89 c22 -21 25 -33 25 -95 0 -90
-17 -110 -90 -110 l-50 0 0 115 0 115 45 0 c35 0 52 -6 70 -25z"/>
<path fill="#0570b8" d="M2910 675 l0 -215 60 0 60 0 0 123 0 122 82 -122 81 -123 58 0 59 0
0 215 0 215 -60 0 -60 0 0 -122 0 -122 -82 122 -82 122 -58 0 -58 0 0 -215z"/>
<path fill="#0570b8" d="M590 654 l0 -87 53 7 c28 3 63 6 76 6 20 0 22 3 16 28 -16 64 -81
132 -127 132 -16 0 -18 -11 -18 -86z"/>
<path fill="#0570b8" d="M918 614 c-15 -8 -53 -20 -85 -27 l-58 -14 -3 -71 -3 -71 43 -11 c24
-6 62 -20 85 -31 59 -27 69 -25 99 21 41 61 42 115 5 173 -33 51 -42 54 -83
31z"/>
<path fill="#0570b8" d="M658 557 l-68 -10 0 -54 0 -53 64 0 c35 0 72 -3 81 -6 14 -6 16 2 13
61 -2 38 -7 69 -13 70 -5 1 -40 -3 -77 -8z"/>
<path fill="#0570b8" d="M590 340 c0 -73 2 -80 20 -80 28 0 90 58 111 105 17 37 17 40 1 47
-9 4 -43 7 -74 7 l-58 1 0 -80z"/>
<path fill="#0570b8" d="M1412 254 c3 -86 5 -98 27 -115 36 -30 124 -27 156 6 23 22 25 32 25
115 0 89 0 90 -25 90 -25 0 -25 -1 -25 -90 0 -87 -1 -91 -25 -102 -18 -8 -35
-9 -53 -2 -26 9 -27 11 -30 102 -3 91 -3 92 -28 92 l-26 0 4 -96z"/>
<path fill="#0570b8" d="M1940 330 c0 -15 7 -20 25 -20 18 0 25 5 25 20 0 15 -7 20 -25 20
-18 0 -25 -5 -25 -20z"/>
<path fill="#0570b8" d="M2910 330 c0 -15 7 -20 25 -20 18 0 25 5 25 20 0 15 -7 20 -25 20
-18 0 -25 -5 -25 -20z"/>
<path fill="#0570b8" d="M3053 327 c-13 -5 -23 -18 -23 -28 0 -9 -6 -20 -12 -23 -10 -5 -10
-7 0 -12 7 -3 12 -25 12 -55 0 -69 13 -89 55 -89 23 0 35 5 35 14 0 8 -8 13
-17 12 -15 -1 -19 9 -21 57 -3 52 -1 57 18 57 11 0 20 5 20 10 0 6 -9 10 -19
10 -14 0 -21 8 -23 29 -3 25 -5 27 -25 18z"/>
<path fill="#0570b8" d="M1772 274 c-12 -8 -22 -10 -22 -5 0 6 -11 11 -25 11 -25 0 -25 -1
-25 -80 0 -78 1 -80 25 -80 23 0 24 3 27 68 l3 67 30 0 30 0 3 -67 c3 -65 4
-68 27 -68 24 0 25 2 25 69 0 61 -3 72 -22 85 -12 9 -29 16 -38 16 -9 0 -26
-7 -38 -16z"/>
<path fill="#0570b8" d="M2306 267 c-57 -57 -20 -147 61 -147 58 0 97 31 53 43 -11 3 -20 1
-20 -3 0 -19 -42 -21 -61 -4 -31 28 -23 34 46 34 62 0 65 1 65 24 0 38 -30 67
-77 73 -35 5 -45 2 -67 -20z m93 -26 c14 -25 5 -31 -41 -31 -24 0 -38 5 -38
13 0 37 62 51 79 18z"/>
<path fill="#0570b8" d="M2581 273 c-6 -10 -11 -12 -11 -5 0 6 -11 12 -25 12 -25 0 -25 -1
-25 -80 0 -78 1 -80 25 -80 23 0 24 4 27 63 3 59 4 62 31 65 19 2 27 9 27 23
0 24 -35 26 -49 2z"/>
<path fill="#0570b8" d="M2692 278 c-17 -8 -22 -19 -20 -37 3 -26 25 -41 82 -58 16 -4 31 -13
33 -20 6 -17 -46 -28 -68 -14 -10 6 -29 11 -41 11 l-23 -1 24 -19 c50 -43 155
-16 149 38 -3 22 -11 29 -57 42 -30 8 -56 20 -58 27 -6 18 27 24 63 11 35 -12
55 -5 37 13 -16 16 -94 21 -121 7z"/>
<path fill="#0570b8" d="M1940 200 c0 -79 0 -80 25 -80 25 0 25 1 25 80 0 79 0 80 -25 80 -25
0 -25 -1 -25 -80z"/>
<path fill="#0570b8" d="M2064 248 c48 -113 58 -128 76 -128 11 0 20 2 20 4 0 2 16 38 35 80
l34 76 -23 0 c-19 0 -27 -9 -41 -47 -10 -27 -21 -51 -24 -55 -4 -5 -15 17 -26
47 -15 46 -22 55 -42 55 -23 0 -23 -1 -9 -32z"/>
<path fill="#0570b8" d="M2910 200 c0 -79 0 -80 25 -80 25 0 25 1 25 80 0 79 0 80 -25 80 -25
0 -25 -1 -25 -80z"/>
<path fill="#0570b8" d="M3185 199 c37 -86 36 -119 -5 -119 -11 0 -20 -4 -20 -10 0 -5 16 -10
35 -10 25 0 39 6 49 23 14 20 86 183 86 193 0 2 -10 4 -23 4 -19 0 -26 -9 -41
-55 -9 -30 -20 -55 -25 -55 -4 0 -15 25 -25 55 -14 47 -21 55 -41 55 l-24 0
34 -81z"/>
</g>
</svg>
